<?xml version="1.0" standalone="no"?>
<!DOCTYPE svg PUBLIC "-//W3C//DTD SVG 20010904//EN"
 "http://www.w3.org/TR/2001/REC-SVG-20010904/DTD/svg10.dtd">
<svg version="1.0" xmlns="http://www.w3.org/2000/svg"
 width="450.000000pt" height="366.000000pt" viewBox="0 0 450.000000 366.000000"
 preserveAspectRatio="xMidYMid meet">

<g transform="translate(0.000000,366.000000) scale(0.100000,-0.100000)"
fill="#000000" stroke="none">
<path d="M1610 1189 c-6 -54 -3 -119 6 -119 11 0 12 105 1 117 -4 3 -7 4 -7 2z"/>
<path d="M2205 1125 c-1 -30 2 -52 6 -49 9 5 10 92 1 98 -4 2 -7 -20 -7 -49z"/>
<path d="M1795 1120 c3 -5 8 -10 11 -10 2 0 4 5 4 10 0 6 -5 10 -11 10 -5 0
-7 -4 -4 -10z"/>
<path d="M2440 1098 c0 -17 3 -28 8 -24 10 10 10 56 0 56 -4 0 -8 -14 -8 -32z"/>
<path d="M2512 1100 c1 -16 5 -30 10 -30 4 0 8 14 8 30 0 17 -4 30 -9 30 -5 0
-9 -13 -9 -30z"/>
<path d="M2744 1100 c1 -39 16 -39 16 0 0 17 -4 30 -9 30 -4 0 -8 -13 -7 -30z"/>
<path d="M2880 1101 c0 -20 5 -31 14 -31 9 0 12 8 8 25 -7 37 -22 41 -22 6z"/>
<path d="M2286 1112 c-9 -14 10 -42 28 -42 8 0 8 2 0 8 -7 4 -13 16 -16 27 -2
15 -6 17 -12 7z"/>
<path d="M2603 1104 c-3 -8 -1 -20 5 -26 7 -7 10 -2 9 16 -2 30 -5 32 -14 10z"/>
<path d="M1916 1101 c-3 -5 1 -14 8 -20 12 -10 13 -8 9 8 -6 23 -9 25 -17 12z"/>
<path d="M2053 1096 c1 -11 9 -21 17 -23 10 -3 11 -2 4 4 -6 4 -14 15 -17 23
-5 11 -6 9 -4 -4z"/>
<path d="M1826 1085 c4 -8 11 -15 16 -15 6 0 5 6 -2 15 -7 8 -14 15 -16 15 -2
0 -1 -7 2 -15z"/>
<path d="M2820 1080 c0 -5 7 -10 15 -10 8 0 15 5 15 10 0 6 -7 10 -15 10 -8 0
-15 -4 -15 -10z"/>
<path d="M880 735 c0 -15 18 -40 24 -34 3 3 -1 14 -9 25 -8 10 -14 15 -15 9z"/>
<path d="M1369 736 c-3 -28 -1 -108 4 -112 3 -3 7 20 9 51 1 31 0 59 -4 62 -5
2 -8 2 -9 -1z"/>
<path d="M1509 736 c-1 -8 0 -105 0 -113 1 -5 6 -1 11 7 13 20 13 97 0 105 -5
3 -10 4 -11 1z"/>
<path d="M1619 738 c-5 -21 -5 -118 1 -118 11 0 17 111 8 117 -5 2 -8 3 -9 1z"/>
<path d="M2618 733 c-8 -14 -2 -103 7 -103 4 0 8 23 8 50 0 49 -6 70 -15 53z"/>
<path d="M1155 720 c3 -5 10 -10 16 -10 5 0 9 5 9 10 0 6 -7 10 -16 10 -8 0
-12 -4 -9 -10z"/>
<path d="M2844 675 c0 -30 4 -55 8 -55 4 0 8 25 8 55 0 30 -3 55 -7 55 -5 0
-8 -25 -9 -55z"/>
<path d="M1827 703 c9 -23 73 -87 80 -80 3 3 -11 20 -31 37 -20 18 -36 38 -36
46 0 8 -4 14 -10 14 -5 0 -6 -8 -3 -17z"/>
<path d="M2185 708 c4 -9 20 -22 36 -28 16 -7 33 -18 37 -25 5 -8 14 -10 29
-4 16 6 20 13 16 30 l-6 22 -17 -23 c-15 -19 -18 -20 -29 -6 -8 9 -18 16 -24
16 -6 0 -19 8 -29 17 -17 15 -18 15 -13 1z"/>
<path d="M2755 670 c14 -27 30 -50 35 -50 14 0 12 16 -4 29 -8 6 -19 25 -26
41 -7 17 -16 30 -21 30 -5 0 2 -22 16 -50z"/>
<path d="M3362 708 c2 -6 20 -21 39 -31 19 -11 37 -24 41 -31 5 -7 8 -5 8 7 0
9 -4 17 -9 17 -4 0 -25 11 -46 25 -20 14 -35 20 -33 13z"/>
<path d="M3657 671 c15 -28 31 -51 35 -51 12 0 9 12 -15 54 -34 59 -51 56 -20
-3z"/>
<path d="M1052 703 c2 -5 12 -25 22 -47 9 -21 20 -35 23 -32 8 7 -29 86 -40
86 -5 0 -7 -3 -5 -7z"/>
<path d="M2092 703 c26 -54 44 -83 51 -83 5 0 7 3 5 8 -26 53 -43 82 -50 82
-5 0 -8 -3 -6 -7z"/>
<path d="M2414 697 c3 -10 1 -27 -4 -38 -7 -12 -7 -19 -1 -19 16 0 23 38 11
57 -11 17 -11 17 -6 0z"/>
<path d="M2451 696 c-6 -7 -9 -21 -5 -30 10 -26 21 -19 21 14 0 34 -1 35 -16
16z"/>
<path d="M2944 674 c0 -31 1 -34 12 -20 6 9 10 26 7 36 -8 32 -18 23 -19 -16z"/>
<path d="M2997 703 c-11 -10 -8 -53 3 -53 6 0 10 14 10 30 0 31 -2 35 -13 23z"/>
<path d="M3110 675 c0 -22 4 -34 10 -30 6 3 10 17 10 30 0 13 -4 27 -10 30 -6
4 -10 -8 -10 -30z"/>
<path d="M1191 697 c2 -1 15 -11 29 -22 l25 -20 -19 23 c-11 12 -24 22 -29 22
-6 0 -8 -1 -6 -3z"/>
<path d="M3165 690 c3 -5 12 -10 19 -10 7 0 22 -9 34 -20 12 -12 22 -16 22
-10 0 6 -15 19 -32 30 -36 22 -53 26 -43 10z"/>
<path d="M830 688 c0 -15 38 -69 43 -61 3 4 -6 22 -19 38 -13 17 -24 27 -24
23z"/>
<path d="M917 670 c3 -11 7 -20 9 -20 2 0 4 9 4 20 0 11 -4 20 -9 20 -5 0 -7
-9 -4 -20z"/>
<path d="M1805 640 c3 -5 8 -10 11 -10 2 0 4 5 4 10 0 6 -5 10 -11 10 -5 0 -7
-4 -4 -10z"/>
</g>
</svg>
